<?xml version="1.0" encoding="utf-8"?>
<!-- Generated by IcoMoon.io -->
<!DOCTYPE svg PUBLIC "-//W3C//DTD SVG 1.1//EN" "http://www.w3.org/Graphics/SVG/1.1/DTD/svg11.dtd">
<svg version="1.1" xmlns="http://www.w3.org/2000/svg" xmlns:xlink="http://www.w3.org/1999/xlink" width="496" height="16" viewBox="0 0 496 16">

<symbol id="icon-images" viewBox="0 0 18 16">
<path d="M17 2h-1v-1c0-0.55-0.45-1-1-1h-14c-0.55 0-1 0.45-1 1v12c0 0.55 0.45 1 1 1h1v1c0 0.55 0.45 1 1 1h14c0.55 0 1-0.45 1-1v-12c0-0.55-0.45-1-1-1zM2 3v10h-0.998c-0.001-0.001-0.001-0.001-0.002-0.002v-11.996c0.001-0.001 0.001-0.001 0.002-0.002h13.996c0.001 0.001 0.001 0.001 0.002 0.002v0.998h-12c-0.55 0-1 0.45-1 1v0zM17 14.998c-0.001 0.001-0.001 0.001-0.002 0.002h-13.996c-0.001-0.001-0.001-0.001-0.002-0.002v-11.996c0.001-0.001 0.001-0.001 0.002-0.002h13.996c0.001 0.001 0.001 0.001 0.002 0.002v11.996z"></path>
<path d="M15 5.5c0 0.828-0.672 1.5-1.5 1.5s-1.5-0.672-1.5-1.5 0.672-1.5 1.5-1.5 1.5 0.672 1.5 1.5z"></path>
<path d="M16 14h-12v-2l3.5-6 4 5h1l3.5-3z"></path>
</symbol>
<symbol id="icon-camera" viewBox="0 0 16 16">
<path d="M4.75 9.5c0 1.795 1.455 3.25 3.25 3.25s3.25-1.455 3.25-3.25-1.455-3.25-3.25-3.25-3.25 1.455-3.25 3.25zM15 4h-3.5c-0.25-1-0.5-2-1.5-2h-4c-1 0-1.25 1-1.5 2h-3.5c-0.55 0-1 0.45-1 1v9c0 0.55 0.45 1 1 1h14c0.55 0 1-0.45 1-1v-9c0-0.55-0.45-1-1-1zM8 13.938c-2.451 0-4.438-1.987-4.438-4.438s1.987-4.438 4.438-4.438c2.451 0 4.438 1.987 4.438 4.438s-1.987 4.438-4.438 4.438zM15 7h-2v-1h2v1z"></path>
</symbol>
<symbol id="icon-mic" viewBox="0 0 16 16">
<path d="M7.5 11c1.381 0 2.5-1.119 2.5-2.5v-6c0-1.381-1.119-2.5-2.5-2.5s-2.5 1.119-2.5 2.5v6c0 1.381 1.119 2.5 2.5 2.5zM11 7v1.5c0 1.933-1.567 3.5-3.5 3.5s-3.5-1.567-3.5-3.5v-1.5h-1v1.5c0 2.316 1.75 4.223 4 4.472v2.028h-2v1h5v-1h-2v-2.028c2.25-0.249 4-2.156 4-4.472v-1.5h-1z"></path>
</symbol>
<symbol id="icon-coin-dollar" viewBox="0 0 16 16">
<path d="M7.5 1c-4.142 0-7.5 3.358-7.5 7.5s3.358 7.5 7.5 7.5c4.142 0 7.5-3.358 7.5-7.5s-3.358-7.5-7.5-7.5zM7.5 14.5c-3.314 0-6-2.686-6-6s2.686-6 6-6c3.314 0 6 2.686 6 6s-2.686 6-6 6zM8 8v-2h2v-1h-2v-1h-1v1h-2v4h2v2h-2v1h2v1h1v-1h2l-0-4h-2zM7 8h-1v-2h1v2zM9 11h-1v-2h1v2z"></path>
</symbol>
<symbol id="icon-wink" viewBox="0 0 16 16">
<path d="M8 16c4.418 0 8-3.582 8-8s-3.582-8-8-8-8 3.582-8 8 3.582 8 8 8zM8 1.5c3.59 0 6.5 2.91 6.5 6.5s-2.91 6.5-6.5 6.5-6.5-2.91-6.5-6.5 2.91-6.5 6.5-6.5zM8.48 11.11c2.191-0.433 3.892-1.43 4.507-2.759-0.338 2.624-2.524 4.649-5.17 4.649-1.863 0-3.498-1.004-4.42-2.515 1.1 0.86 3.040 1.028 5.083 0.625zM10 5.5c0-0.828 0.448-1.5 1-1.5s1 0.672 1 1.5c0 0.828-0.448 1.5-1 1.5s-1-0.672-1-1.5zM5.5 5.805c-0.653 0-1.208 0.245-1.414 0.586-0.055-0.092-0.086-0.503-0.086-0.605 0-0.485 0.672-0.879 1.5-0.879s1.5 0.394 1.5 0.879c0 0.103-0.030 0.514-0.086 0.605-0.206-0.341-0.761-0.586-1.414-0.586z"></path>
</symbol>
<symbol id="icon-text-color" viewBox="0 0 16 16">
<path d="M5.032 13l0.9-3h4.137l0.9 3h1.775l-3-10h-3.488l-3 10h1.776zM7.432 5h1.137l0.9 3h-2.937l0.9-3z"></path>
</symbol>
<symbol id="icon-facebook2" viewBox="0 0 16 16">
<path d="M14.5 0h-13c-0.825 0-1.5 0.675-1.5 1.5v13c0 0.825 0.675 1.5 1.5 1.5h6.5v-7h-2v-2h2v-1c0-1.653 1.347-3 3-3h2v2h-2c-0.55 0-1 0.45-1 1v1h3l-0.5 2h-2.5v7h4.5c0.825 0 1.5-0.675 1.5-1.5v-13c0-0.825-0.675-1.5-1.5-1.5z"></path>
</symbol>
<symbol id="compas" viewBox="0 0 16 16">
<path d="M8.5 16c-0.036 0-0.072-0.004-0.108-0.012-0.229-0.051-0.392-0.254-0.392-0.488v-7.5h-7.5c-0.234 0-0.437-0.163-0.488-0.392s0.064-0.462 0.277-0.561l15-7c0.191-0.089 0.416-0.049 0.565 0.1s0.188 0.374 0.1 0.565l-7 15c-0.083 0.179-0.262 0.289-0.453 0.289zM2.754 7h5.746c0.276 0 0.5 0.224 0.5 0.5v5.746l5.465-11.712-11.712 5.465z"></path>
</symbol>
</svg>
